<svg width="413" height="145" viewBox="0 0 413 145" fill="none" xmlns="http://www.w3.org/2000/svg">
<path d="M20.8115 36.59C29.6515 27.5767 40.8315 23.07 54.3515 23.07C65.0115 23.07 74.2415 26.0167 82.0415 31.91C89.8415 37.7167 94.8682 45.69 97.1215 55.83C97.2082 56.1767 97.2515 56.48 97.2515 56.74C97.2515 57.9533 96.5148 58.56 95.0415 58.56H85.5515C84.1648 58.56 83.2548 57.8233 82.8215 56.35C81.1748 50.0233 77.7948 45.0833 72.6815 41.53C67.6548 37.89 61.5448 36.07 54.3515 36.07C44.6448 36.07 36.7582 39.2333 30.6915 45.56C24.7115 51.8 21.7215 59.9467 21.7215 70C21.7215 80.0533 24.7115 88.2433 30.6915 94.57C36.7582 100.81 44.6448 103.93 54.3515 103.93C61.5448 103.93 67.6548 102.153 72.6815 98.6C77.7948 94.96 81.1748 89.9767 82.8215 83.65C83.2548 82.1767 84.1648 81.44 85.5515 81.44H95.0415C96.5148 81.44 97.2515 82.0467 97.2515 83.26C97.2515 83.6067 97.2082 83.9533 97.1215 84.3C94.8682 94.44 89.7982 102.413 81.9115 108.22C74.1115 114.027 64.9248 116.93 54.3515 116.93C40.8315 116.93 29.6515 112.423 20.8115 103.41C11.9715 94.31 7.55148 83.1733 7.55148 70C7.55148 56.8267 11.9715 45.69 20.8115 36.59ZM115.801 123.56H123.731C125.031 123.56 125.941 124.297 126.461 125.77C128.281 131.23 133.351 133.96 141.671 133.96C153.198 133.96 158.961 128.067 158.961 116.28V104.71H158.441C156.794 108.003 154.151 110.647 150.511 112.64C146.958 114.547 142.711 115.5 137.771 115.5C130.231 115.5 124.338 113.247 120.091 108.74C115.931 104.233 113.851 98.0367 113.851 90.15V57C113.851 55.3533 114.674 54.53 116.321 54.53H124.381C126.028 54.53 126.851 55.3533 126.851 57V86.9C126.851 98.1667 131.704 103.8 141.411 103.8C146.524 103.8 150.641 102.24 153.761 99.12C156.968 96 158.571 91.7967 158.571 86.51V57C158.571 55.3533 159.394 54.53 161.041 54.53H169.101C170.748 54.53 171.571 55.3533 171.571 57V116.28C171.571 125.38 168.928 132.443 163.641 137.47C158.354 142.497 151.031 145.01 141.671 145.01C133.698 145.01 127.241 143.277 122.301 139.81C117.448 136.43 114.501 131.837 113.461 126.03C113.374 125.77 113.331 125.51 113.331 125.25C113.331 124.123 114.154 123.56 115.801 123.56ZM196.003 62.2C201.896 56.1333 209.566 53.1 219.013 53.1C226.726 53.1 233.269 55.1367 238.643 59.21C244.103 63.1967 247.483 68.4833 248.783 75.07C248.783 75.2433 248.783 75.46 248.783 75.72C248.783 77.02 248.003 77.67 246.443 77.67H237.993C236.606 77.67 235.696 76.9767 235.263 75.59C234.136 72.1233 232.143 69.48 229.283 67.66C226.509 65.7533 223.129 64.8 219.143 64.8C213.423 64.8 208.829 66.7067 205.363 70.52C201.983 74.2467 200.293 79.0567 200.293 84.95C200.293 90.93 201.983 95.7833 205.363 99.51C208.829 103.237 213.423 105.1 219.143 105.1C223.043 105.1 226.379 104.19 229.153 102.37C232.013 100.55 234.006 97.95 235.133 94.57C235.566 93.0967 236.476 92.36 237.863 92.36H246.313C247.093 92.36 247.699 92.5767 248.133 93.01C248.566 93.3567 248.783 93.7467 248.783 94.18C248.783 94.44 248.739 94.6567 248.653 94.83C247.439 101.417 244.103 106.747 238.643 110.82C233.269 114.893 226.726 116.93 219.013 116.93C209.566 116.93 201.853 113.897 195.873 107.83C189.979 101.677 187.033 94.05 187.033 84.95C187.033 75.85 190.023 68.2667 196.003 62.2ZM267.156 24.5H275.216C276.863 24.5 277.686 25.3233 277.686 26.97V113.03C277.686 114.677 276.863 115.5 275.216 115.5H267.156C265.51 115.5 264.686 114.677 264.686 113.03V26.97C264.686 25.3233 265.51 24.5 267.156 24.5ZM293.683 98.6C294.116 98.1667 294.723 97.95 295.503 97.95H303.693C304.993 97.95 305.903 98.6433 306.422 100.03C307.983 104.537 312.576 106.79 320.203 106.79C329.043 106.79 333.463 103.973 333.463 98.34C333.463 96.0867 332.639 94.3967 330.993 93.27C329.433 92.0567 326.616 91.1467 322.543 90.54L311.753 88.98C299.359 87.2467 293.163 81.4833 293.163 71.69C293.163 66.0567 295.373 61.55 299.793 58.17C304.299 54.79 310.756 53.1 319.163 53.1C334.849 53.1 343.603 58.95 345.423 70.65C345.423 70.8233 345.423 71.04 345.423 71.3C345.423 72.6 344.643 73.25 343.083 73.25H335.153C333.766 73.25 332.856 72.47 332.423 70.91C331.296 65.8833 326.833 63.37 319.033 63.37C310.279 63.37 305.903 66.1 305.903 71.56C305.903 73.4667 306.683 74.9833 308.243 76.11C309.889 77.2367 312.793 78.1033 316.953 78.71L327.613 80.27C340.006 82.09 346.203 87.9833 346.203 97.95C346.203 103.93 343.906 108.61 339.313 111.99C334.719 115.283 328.263 116.93 319.943 116.93C304.343 116.93 295.416 111.47 293.163 100.55C293.163 100.377 293.163 100.203 293.163 100.03C293.163 99.51 293.336 99.0333 293.683 98.6Z" fill="#374151"/>
</svg>
